<svg xmlns="http://www.w3.org/2000/svg" width="80" height="80" fill="none" viewBox="0 0 80 80"><rect width="80" height="80" fill="#fff"/><rect width="44" height="44" x="5" y="5" fill="#fff" fill-opacity=".8" rx="1.5"/><rect width="44" height="44" x="5" y="5" fill="url(#paint0_linear)" fill-opacity=".3" rx="1.5"/><rect width="44" height="44" x="15" y="15" fill="#fff" fill-opacity=".8" rx="1.5"/><rect width="44" height="44" x="15" y="15" fill="url(#paint1_linear)" fill-opacity=".6" rx="1.5"/><rect width="44" height="44" x="25" y="25" fill="url(#paint2_linear)" rx="1.5"/><path fill-rule="evenodd" stroke="#fff" stroke-linecap="round" stroke-linejoin="round" stroke-width="2" d="M48.25 52C44.7982 52 42 49.2018 42 45.75C42 42.2982 44.7982 39.5 48.25 39.5C51.7018 39.5 54.5 42.2982 54.5 45.75C54.5 49.2018 51.7018 52 48.25 52Z" clip-rule="evenodd"/><path stroke="#fff" stroke-linecap="round" stroke-linejoin="round" stroke-width="2" d="M39.5007 54.4993L43.834 50.166"/><circle cx="61" cy="61" r="2" fill="#fff"/><defs><linearGradient id="paint0_linear" x1="49" x2="1.088" y1="5" y2="44.221" gradientUnits="userSpaceOnUse"><stop stop-color="#DC477D"/><stop offset=".583" stop-color="#D4BCD9"/><stop offset=".938" stop-color="#D1EBFF"/></linearGradient><linearGradient id="paint1_linear" x1="59" x2="11.088" y1="15" y2="54.221" gradientUnits="userSpaceOnUse"><stop stop-color="#DC477D"/><stop offset=".583" stop-color="#D4BCD9"/><stop offset=".938" stop-color="#D1EBFF"/></linearGradient><linearGradient id="paint2_linear" x1="44.2" x2="64.047" y1="69" y2="25.903" gradientUnits="userSpaceOnUse"><stop stop-color="#DC477D"/><stop offset=".359" stop-color="#DC477D" stop-opacity=".96"/><stop offset=".703" stop-color="#DC477D" stop-opacity=".88"/><stop offset="1" stop-color="#DC477D" stop-opacity=".7"/></linearGradient></defs></svg>